<?xml version="1.0" encoding="utf-8"?>
<!-- Generator: Adobe Illustrator 19.2.1, SVG Export Plug-In . SVG Version: 6.00 Build 0)  -->
<svg version="1.1" id="layer" xmlns="http://www.w3.org/2000/svg" xmlns:xlink="http://www.w3.org/1999/xlink" x="0px" y="0px"
	 viewBox="0 0 652 652" style="enable-background:new 0 0 652 652;" xml:space="preserve">
<style type="text/css">
	.st0{fill:#004E87;}
	.st1{fill:#FFFFFF;}
</style>
<rect x="26.2" y="212.6" class="st0" width="600" height="227.7"/>
<path class="st1" d="M35.3,230.3h31.6v67.5h49.8v27H35.3V230.3z M167.1,289.7l8.6-22.9l8.6,22.9H167.1z M120.5,324.8h33.7l4.9-12.7
	h33.1l5,12.7h34.3l-39.8-95.1h-31.3L120.5,324.8z M60.3,422.9h31.6v-67.7h24.9v-26.7H35.3v26.7h24.9V422.9z M151.9,373.4v-18.5h13.8
	c7.3,0,12,3,12,9v0.3c0,5.8-4.6,9.2-12.1,9.2H151.9z M120.3,422.9h31.6v-27h6.5h0.3l17.8,27h36l-22-32.1
	c11.5-5.5,18.6-15.1,18.6-28.9v-0.3c0-9.7-3-16.7-8.6-22.4c-6.6-6.6-17.3-10.8-34-10.8h-46.2V422.9z M280.2,399v-14h15.9
	c6.9,0,10.3,2.8,10.3,6.9v0.3c0,4.1-3.5,6.9-10.4,6.9H280.2z M280.2,365.5v-13.2h13.6c6.7,0,10.1,2.3,10.1,6.5v0.3
	c0,4.2-3.2,6.5-10,6.5H280.2z M249.4,422.9h52.4c23.9,0,36.3-11.1,36.3-26.2v-0.3c0-12.9-7.8-19.4-20-22.9
	c10.1-3.5,16.9-10.4,16.9-21.6v-0.3c0-6.5-2.4-11.3-5.8-14.7c-5.5-5.5-13.8-8.5-26.9-8.5h-52.9V422.9z M339.3,380.5
	c0,31.3,18.2,44.3,46.4,44.3c28.2,0,47-12.7,47-44.9v-51.4h-32.1v52.4c0,11.5-6.1,16.1-14.6,16.1c-8.5,0-14.6-5-14.6-16.7v-51.7
	h-32.1V380.5 M436.5,422.9h31.3v-43.6l35.1,43.6h28.1v-94.5h-31.3v41.7L466,328.4h-29.6V422.9z M534.6,422.9h81.2V397h-50.2v-10.3
	h46.2v-22.8h-46.2v-9.6h49.5v-25.9h-80.6V422.9z M213.4,422.9h32.3v-94.5h-32.3V422.9z"/>
</svg>
