<svg width="115" height="29" viewBox="0 0 115 29" fill="none" xmlns="http://www.w3.org/2000/svg">
<path d="M115 2.59029C115 3.93348 113.911 5.02614 112.564 5.02614H105.591V26.4129C105.591 27.7561 104.498 28.8488 103.155 28.8488C101.812 28.8488 100.719 27.7561 100.719 26.4129V5.02614H93.742C92.3953 5.02614 91.3062 3.93348 91.3062 2.59029C91.3062 1.24709 92.3953 0.154434 93.742 0.154434H112.564C113.911 0.154434 115 1.24361 115 2.59029Z" fill="#242424" style="fill-opacity:1;"></path>
<path d="M84.5065 24.9027C85.3417 25.9571 85.1607 27.4882 84.1064 28.3233C83.6575 28.6783 83.1251 28.8488 82.5961 28.8488C81.8758 28.8488 81.1659 28.5321 80.6822 27.9231L75.1389 20.9044C74.3038 19.8466 74.4847 18.3154 75.5391 17.4838C76.597 16.6486 78.1281 16.8296 78.9598 17.884L84.5065 24.9027Z" fill="#242424" style="fill-opacity:1;"></path>
<path d="M54.3648 2.59029C54.3648 3.93348 53.2756 5.02614 51.9289 5.02614H33.1067C31.7601 5.02614 30.6709 3.93348 30.6709 2.59029C30.6709 1.24709 31.7601 0.154434 33.1067 0.154434H51.9289C53.2756 0.154434 54.3648 1.24361 54.3648 2.59029Z" fill="#242424" style="fill-opacity:1;"></path>
<path d="M54.3648 26.4129C54.3648 27.7561 53.2756 28.8488 51.9289 28.8488H33.1067C31.7601 28.8488 30.6709 27.7561 30.6709 26.4129C30.6709 25.0697 31.7601 23.9771 33.1067 23.9771H51.9289C53.2756 23.9771 54.3648 25.0662 54.3648 26.4129Z" fill="#242424" style="fill-opacity:1;"></path>
<path d="M84.5065 4.10052L78.9598 11.1193C78.4795 11.7247 77.7662 12.0449 77.0459 12.0449C76.5204 12.0449 75.9845 11.8709 75.5391 11.5194C74.4847 10.6843 74.3038 9.15317 75.1389 8.0988L80.6822 1.08007C81.5174 0.0222109 83.0485 -0.155258 84.1064 0.676411C85.1607 1.51156 85.3417 3.04267 84.5065 4.10052Z" fill="#242424" style="fill-opacity:1;"></path>
<path d="M23.7008 2.59029V26.4164C23.7008 26.4999 23.6973 26.5799 23.6869 26.66C23.6869 26.7122 23.6765 26.7644 23.666 26.8131C23.666 26.82 23.666 26.827 23.6625 26.8374C23.6625 26.8688 23.6521 26.9036 23.6417 26.9349V26.9453C23.6278 27.0114 23.6104 27.0741 23.5895 27.1367C23.5686 27.2028 23.5477 27.2689 23.5199 27.3316C23.5164 27.3455 23.5094 27.3594 23.5025 27.3733C23.4433 27.516 23.3668 27.6482 23.2833 27.7735C23.2485 27.8257 23.2137 27.8744 23.1754 27.9231C23.1649 27.9371 23.1545 27.9475 23.1441 27.9614C23.0953 28.0206 23.0431 28.0762 22.991 28.1319C22.9214 28.198 22.8518 28.2642 22.7752 28.3233C22.6639 28.4103 22.5455 28.4903 22.4237 28.5565C22.3576 28.5913 22.2846 28.6261 22.2115 28.6574C22.1523 28.6852 22.0897 28.7061 22.0236 28.727C21.9818 28.7409 21.9366 28.7548 21.8948 28.7652C21.8705 28.7722 21.8496 28.7792 21.8252 28.7826C21.7904 28.7931 21.7521 28.8 21.7174 28.807C21.6512 28.8209 21.5816 28.8279 21.512 28.8348C21.432 28.8453 21.3485 28.8488 21.265 28.8488C21.1815 28.8488 21.0979 28.8453 21.0144 28.8348C20.9657 28.8348 20.9135 28.8244 20.8648 28.814C20.8578 28.814 20.8509 28.814 20.8439 28.814C20.8056 28.8105 20.7708 28.8035 20.736 28.7931H20.7326C20.6769 28.7826 20.6177 28.7652 20.5655 28.7513C20.5342 28.7409 20.5029 28.7304 20.4716 28.72C20.4194 28.7026 20.3672 28.6817 20.315 28.6608C20.2419 28.6295 20.1723 28.5947 20.1027 28.5599C20.0227 28.5147 19.9427 28.466 19.8626 28.4103C19.7478 28.3268 19.6399 28.2363 19.5425 28.1389C19.4868 28.0832 19.4346 28.024 19.3859 27.9649C19.372 27.9545 19.3615 27.9405 19.3511 27.9266L4.8717 9.5951V26.4129C4.8717 27.7561 3.78253 28.8488 2.43585 28.8488C1.08917 28.8488 0 27.7561 0 26.4129V2.59029C0 1.96392 0.233146 1.4002 0.622882 0.968704C0.685518 0.899109 0.755114 0.832993 0.824709 0.770356C0.859507 0.739038 0.897785 0.70772 0.936063 0.676402C1.10309 0.54417 1.28404 0.439777 1.46847 0.356262C1.53111 0.328424 1.59374 0.304065 1.65638 0.283186C1.72249 0.262308 1.78513 0.241429 1.85125 0.22751C1.89996 0.213591 1.95216 0.203151 2.00436 0.196192C2.06351 0.182272 2.12615 0.171833 2.18879 0.168353C2.26534 0.157914 2.34886 0.154434 2.42889 0.154434H2.43933C2.52285 0.154434 2.60636 0.154434 2.6864 0.168353C2.73859 0.168353 2.79079 0.178793 2.84299 0.189232C2.88822 0.196192 2.93346 0.203151 2.97522 0.213591C3.03785 0.22751 3.10049 0.244909 3.15965 0.262308C3.2362 0.286666 3.31276 0.314504 3.38583 0.345822C3.45891 0.377141 3.5285 0.411938 3.5981 0.446736C3.88344 0.596367 4.14443 0.808634 4.35669 1.08006L18.8291 19.4011V2.59029C18.8291 1.24361 19.9183 0.154434 21.265 0.154434C22.6117 0.154434 23.7008 1.24361 23.7008 2.59029Z" fill="#242424" style="fill-opacity:1;"></path>
<path d="M0.824874 0.77037C0.755279 0.833007 0.685683 0.899123 0.623047 0.968718C0.682203 0.895643 0.751799 0.826047 0.824874 0.77037Z" fill="#242424" style="fill-opacity:1;"></path>
<path d="M0.936035 0.676387C1.09959 0.544155 1.27705 0.436282 1.46844 0.356247C1.28401 0.439762 1.10306 0.544155 0.936035 0.676387Z" fill="#242424" style="fill-opacity:1;"></path>
<path d="M23.2832 27.7735C23.3667 27.6482 23.4433 27.516 23.5024 27.3733C23.4433 27.5125 23.3702 27.6482 23.2832 27.7735Z" fill="#242424" style="fill-opacity:1;"></path>
<path class="logo-color-category1" id="logo-color-category1" d="M63.7705 28.8488C63.2415 28.8488 62.7091 28.6782 62.2637 28.3233C61.2094 27.4882 61.0284 25.9571 61.8636 24.9027L67.5913 17.6543C69.1746 15.6499 69.1746 13.3498 67.5913 11.3454L61.8636 4.09704C61.0284 3.04266 61.2094 1.50807 62.2637 0.676405C63.3216 -0.158744 64.8527 0.022205 65.6844 1.07658L71.4121 8.32498C74.3769 12.0762 74.3769 16.9235 71.4121 20.6747L65.6844 27.9231C65.2041 28.5321 64.4908 28.8488 63.7705 28.8488Z" fill="#4F62FF" style="fill:#4F62FF;fill:color(display-p3 0.3083 0.3857 1.0000);fill-opacity:1;"></path>
<path class="logo-color-category1" id="logo-color-category2" d="M43.9776 16.9375H33.1067C31.7601 16.9375 30.6709 15.8448 30.6709 14.5016C30.6709 13.1584 31.7601 12.0658 33.1067 12.0658H43.9776C45.3243 12.0658 46.4135 13.1584 46.4135 14.5016C46.4135 15.8448 45.3243 16.9375 43.9776 16.9375Z" fill="#4F62FF" style="fill:#4F62FF;fill:color(display-p3 0.3083 0.3857 1.0000);fill-opacity:1;"></path>
</svg>