<?xml version="1.0" encoding="utf-8"?>
<!-- Generator: Adobe Illustrator 25.0.1, SVG Export Plug-In . SVG Version: 6.00 Build 0)  -->
<svg version="1.0" id="Layer_1" xmlns="http://www.w3.org/2000/svg" xmlns:xlink="http://www.w3.org/1999/xlink" x="0px" y="0px"
	 viewBox="0 0 1024 761.1" style="enable-background:new 0 0 1024 761.1;" xml:space="preserve">
<style type="text/css">
	.st0{fill:#AF001E;}
	.st1{fill:#FFFFFF;}
</style>
<rect x="149" y="137.1" class="st0" width="726" height="486.9"/>
<path class="st1" d="M318.4,377.1l-3.7,15.2c-0.8,2.5-1.2,5.1-1.2,7.8c0,3.7,1.2,6.6,3.7,10.7l42.7,76.7c3.7,6.1,6.6,8.6,15.2,8.6
	h39c4.9,0,11.1-3.3,5.3-12.3l-52.5-87c17.6-11.1,37.3-27.1,37.3-61.5c0-44.7-25-70.1-80.4-70.1h-80c-7,0-9.4,2.5-9.4,9.8v211.3
	c0,7.4,2,9.8,9.4,9.8h32.8c7.4,0,9.4-2.5,9.4-9.8v-178h34c21.3,0,32,7.8,32,27.9c0,18.5-8.2,24.2-16.4,27.5
	C325.4,368.1,321.7,363.6,318.4,377.1z"/>
<path class="st1" d="M493.1,486.6c0,7.4,2,9.8,9.4,9.8h32.8c7,0,9.4-2.5,9.4-9.8V309.4h61.1c7.4,0,9.4-2.5,9.4-9.8V275
	c0-7-2-9.8-9.4-9.8H432c-7.4,0-9.4,2.5-9.4,9.8v24.6c0,7,2,9.8,9.4,9.8h61.1L493.1,486.6z"/>
<path class="st1" d="M635.5,459.1l-4.5,27.5c-0.8,5.3,1.6,7.4,6.6,8.2c20.6,2.1,41.3,3.2,61.9,3.3c57,0,98.8-18.5,98.8-71.8
	c0-31.2-13.5-54.5-61.1-66.9l-26.7-7c-18-4.5-26.2-10.2-26.2-23.8c0-18.5,17.2-22.1,33.6-22.1c22.2,0,44.7,1.6,53.7,2.5
	c9.4,0.8,11.9-0.4,13.1-8.2l4.1-27.1c0.8-5.3-1.6-7.4-6.6-8.2c-10.2-1.6-33.2-3.3-62.3-3.3c-59.1,0-87.8,25.8-87.8,66.9
	c0,36.9,20.1,58.6,55,67.7l26.7,7c21.7,5.8,31.1,12.3,31.1,25.9c0,20.1-13.5,23.8-46.8,23.8c-15.2,0-41.4-2-50-2.9
	C639.6,450.1,637.1,451.3,635.5,459.1z"/>
</svg>
